<svg xmlns="http://www.w3.org/2000/svg" viewBox="0 0 260 220" width="100%" height="100%">
  <defs>
    <radialGradient id="bgGrad" cx="50%" cy="50%" r="70%">
      <stop offset="0%" stop-color="#ffffff"/>
      <stop offset="100%" stop-color="#f8fafc"/>
    </radialGradient>
  </defs>
  <rect width="260" height="220" rx="18" fill="url(#bgGrad)" stroke="#e2e8f0" stroke-width="2"/>
  <g transform="translate(130, 105)">
            <rect x="-25" y="-10" width="50" height="55" rx="12" fill="#dbeafe" stroke="#3b82f6" stroke-width="4"/>
            <rect x="-24" y="-48" width="11" height="42" rx="5" fill="#dbeafe" stroke="#3b82f6" stroke-width="3"/>
            <rect x="-10" y="-56" width="11" height="48" rx="5" fill="#dbeafe" stroke="#3b82f6" stroke-width="3"/>
            <rect x="4" y="-54" width="11" height="46" rx="5" fill="#dbeafe" stroke="#3b82f6" stroke-width="3"/>
            <rect x="18" y="-42" width="10" height="36" rx="5" fill="#dbeafe" stroke="#3b82f6" stroke-width="3"/>
            <rect x="-38" y="0" width="16" height="28" rx="6" fill="#dbeafe" stroke="#3b82f6" stroke-width="3" transform="rotate(25 -38 0)"/>
            <path d="M38,-20 Q55,-10 38,0" fill="none" stroke="#3b82f6" stroke-width="3" stroke-linecap="round"/>
            <path d="M48,-30 Q70,-10 48,10" fill="none" stroke="#3b82f6" stroke-width="3" stroke-linecap="round"/>
        </g>
  <rect x="14" y="14" width="38" height="38" rx="10" fill="#ffffff" stroke="#e2e8f0" stroke-width="1.5"/>
  <text x="33" y="39" font-size="20" text-anchor="middle">👋</text>
  <text x="130" y="195" font-family="'Plus Jakarta Sans', sans-serif" font-size="15" font-weight="800" fill="#3b82f6" text-anchor="middle">HELLO / HI</text>
</svg>